<svg xmlns="http://www.w3.org/2000/svg" viewBox="0 0 209.05 107.32"><defs><style>.cls-1{font-size:36.73px;fill:#9d9e9f;font-family:Helvetica-Light, Helvetica;}.cls-2{fill:none;stroke:#a6a7a8;stroke-miterlimit:10;stroke-width:2px;}.cls-3{fill:#646668;}</style></defs><title>Asset 1</title><g id="Layer_2" data-name="Layer 2"><g id="Layer_1-2" data-name="Layer 1"><text class="cls-1" transform="translate(92.72 31.55)">IRON</text><text class="cls-1" transform="translate(92.72 62.53)">RHINO</text><text class="cls-1" transform="translate(92.72 94.29)">LABS</text><line class="cls-2" x1="84.62" y1="5.06" x2="84.62" y2="94.29"/><polygon class="cls-3" points="74.42 5.68 74.42 84.08 71.76 76.11 69.92 70.23 69.23 68.99 66.9 67.74 65.77 65.21 58.15 76.98 56.07 84.08 56.07 87.36 52.27 93.27 48.28 93.27 45.17 94.29 39.46 93.27 34.79 89.61 30.63 88.23 27.17 85.29 21.81 84.77 9.52 80.44 1.39 76.29 0 74.04 8.8 77.27 18.03 78.08 25.35 77.18 31.32 72.15 29.25 69.19 25.82 66.94 24.92 65.38 29.13 65.09 32.02 63.48 33.05 61.06 31.7 50.53 30.11 46.17 23.54 44.44 20.94 43.23 23.19 41.85 27.69 42.25 30.11 41.88 32.68 39.11 34.5 39.16 39.78 27.97 44.39 21.8 53.48 12.95 59.42 9.25 67.12 6.48 69.54 5.68 74.42 5.68"/></g></g></svg>